<mxfile host="app.diagrams.net" modified="2023-09-19T19:56:44.971Z" agent="Mozilla/5.0 (Macintosh; Intel Mac OS X 10_15_7) AppleWebKit/537.36 (KHTML, like Gecko) Chrome/116.0.0.0 Safari/537.36" etag="0afhHywS5OI7_0A1jXG5" version="21.7.5" type="device" pages="2">
  <diagram name="Page-1" id="6Lzuny_ZebzNiCi39UGr">
    <mxGraphModel dx="1307" dy="865" grid="0" gridSize="10" guides="1" tooltips="1" connect="1" arrows="1" fold="1" page="1" pageScale="1" pageWidth="850" pageHeight="1100" background="#ffffff" math="0" shadow="0">
      <root>
        <mxCell id="0" />
        <mxCell id="1" parent="0" />
        <mxCell id="kxaNq1Bsel2BopFmglXN-5" value="ArbTakerKlient" style="rounded=0;whiteSpace=wrap;html=1;labelBackgroundColor=none;fillColor=#F2CC8F;strokeColor=#E07A5F;fontColor=#393C56;" parent="1" vertex="1">
          <mxGeometry x="160" y="40" width="120" height="60" as="geometry" />
        </mxCell>
        <mxCell id="kxaNq1Bsel2BopFmglXN-6" value="Person" style="shape=umlActor;verticalLabelPosition=bottom;verticalAlign=top;html=1;outlineConnect=0;labelBackgroundColor=none;fillColor=#F2CC8F;strokeColor=#E07A5F;fontColor=#393C56;" parent="1" vertex="1">
          <mxGeometry x="20" y="40" width="30" height="60" as="geometry" />
        </mxCell>
        <mxCell id="kxaNq1Bsel2BopFmglXN-8" value="ArbTaker" style="rounded=0;whiteSpace=wrap;html=1;labelBackgroundColor=none;fillColor=#F2CC8F;strokeColor=#E07A5F;fontColor=#393C56;" parent="1" vertex="1">
          <mxGeometry x="360" y="40" width="120" height="60" as="geometry" />
        </mxCell>
        <mxCell id="kxaNq1Bsel2BopFmglXN-11" value="" style="endArrow=none;dashed=1;html=1;dashPattern=1 3;strokeWidth=2;rounded=0;entryX=0.5;entryY=1;entryDx=0;entryDy=0;labelBackgroundColor=none;strokeColor=#E07A5F;fontColor=default;" parent="1" target="kxaNq1Bsel2BopFmglXN-5" edge="1">
          <mxGeometry width="50" height="50" relative="1" as="geometry">
            <mxPoint x="220" y="912" as="sourcePoint" />
            <mxPoint x="310" y="220" as="targetPoint" />
          </mxGeometry>
        </mxCell>
        <mxCell id="kxaNq1Bsel2BopFmglXN-9" value="Person" style="rounded=0;whiteSpace=wrap;html=1;labelBackgroundColor=none;fillColor=#F2CC8F;strokeColor=#E07A5F;fontColor=#393C56;" parent="1" vertex="1">
          <mxGeometry x="560" y="40" width="120" height="60" as="geometry" />
        </mxCell>
        <mxCell id="kxaNq1Bsel2BopFmglXN-12" value="" style="rounded=1;whiteSpace=wrap;html=1;rotation=90;labelBackgroundColor=none;fillColor=#F2CC8F;strokeColor=#E07A5F;fontColor=#393C56;" parent="1" vertex="1">
          <mxGeometry x="-134.96" y="489.95" width="709.9" height="30" as="geometry" />
        </mxCell>
        <mxCell id="kxaNq1Bsel2BopFmglXN-15" value="" style="endArrow=none;dashed=1;html=1;dashPattern=1 3;strokeWidth=2;rounded=0;entryX=0.5;entryY=1;entryDx=0;entryDy=0;labelBackgroundColor=none;strokeColor=#E07A5F;fontColor=default;" parent="1" target="kxaNq1Bsel2BopFmglXN-8" edge="1">
          <mxGeometry width="50" height="50" relative="1" as="geometry">
            <mxPoint x="420" y="917" as="sourcePoint" />
            <mxPoint x="360" y="290" as="targetPoint" />
          </mxGeometry>
        </mxCell>
        <mxCell id="kxaNq1Bsel2BopFmglXN-17" value="" style="endArrow=none;dashed=1;html=1;dashPattern=1 3;strokeWidth=2;rounded=0;labelBackgroundColor=none;strokeColor=#E07A5F;fontColor=default;" parent="1" edge="1">
          <mxGeometry width="50" height="50" relative="1" as="geometry">
            <mxPoint x="34.72" y="750" as="sourcePoint" />
            <mxPoint x="34.72" y="150" as="targetPoint" />
          </mxGeometry>
        </mxCell>
        <mxCell id="kxaNq1Bsel2BopFmglXN-18" value="" style="rounded=1;whiteSpace=wrap;html=1;rotation=90;labelBackgroundColor=none;fillColor=#F2CC8F;strokeColor=#E07A5F;fontColor=#393C56;" parent="1" vertex="1">
          <mxGeometry x="67.11" y="492.9" width="705.8" height="30" as="geometry" />
        </mxCell>
        <mxCell id="kxaNq1Bsel2BopFmglXN-19" value="" style="endArrow=none;dashed=1;html=1;dashPattern=1 3;strokeWidth=2;rounded=0;labelBackgroundColor=none;strokeColor=#E07A5F;fontColor=default;" parent="1" source="kxaNq1Bsel2BopFmglXN-20" edge="1">
          <mxGeometry width="50" height="50" relative="1" as="geometry">
            <mxPoint x="620" y="960.8695652173913" as="sourcePoint" />
            <mxPoint x="620" y="100" as="targetPoint" />
          </mxGeometry>
        </mxCell>
        <mxCell id="kxaNq1Bsel2BopFmglXN-21" value="" style="endArrow=none;dashed=1;html=1;dashPattern=1 3;strokeWidth=2;rounded=0;labelBackgroundColor=none;strokeColor=#E07A5F;fontColor=default;" parent="1" target="kxaNq1Bsel2BopFmglXN-20" edge="1">
          <mxGeometry width="50" height="50" relative="1" as="geometry">
            <mxPoint x="620" y="914" as="sourcePoint" />
            <mxPoint x="620" y="100" as="targetPoint" />
          </mxGeometry>
        </mxCell>
        <mxCell id="kxaNq1Bsel2BopFmglXN-20" value="" style="rounded=1;whiteSpace=wrap;html=1;rotation=90;labelBackgroundColor=none;fillColor=#F2CC8F;strokeColor=#E07A5F;fontColor=#393C56;" parent="1" vertex="1">
          <mxGeometry x="391.26" y="476.23" width="457.48" height="30" as="geometry" />
        </mxCell>
        <mxCell id="kxaNq1Bsel2BopFmglXN-33" value="" style="edgeStyle=orthogonalEdgeStyle;rounded=0;orthogonalLoop=1;jettySize=auto;html=1;entryX=0.043;entryY=0.993;entryDx=0;entryDy=0;entryPerimeter=0;labelBackgroundColor=none;strokeColor=#E07A5F;fontColor=default;" parent="1" source="dcrfOVd3hIp5pLA7-Zam-8" target="kxaNq1Bsel2BopFmglXN-12" edge="1">
          <mxGeometry relative="1" as="geometry">
            <mxPoint x="170" y="226" as="sourcePoint" />
          </mxGeometry>
        </mxCell>
        <mxCell id="kxaNq1Bsel2BopFmglXN-43" value="" style="endArrow=classic;html=1;rounded=0;strokeColor=none;entryX=0.143;entryY=1.101;entryDx=0;entryDy=0;entryPerimeter=0;labelBackgroundColor=none;fontColor=default;" parent="1" target="kxaNq1Bsel2BopFmglXN-12" edge="1">
          <mxGeometry width="50" height="50" relative="1" as="geometry">
            <mxPoint x="150" y="295" as="sourcePoint" />
            <mxPoint x="180" y="280" as="targetPoint" />
            <Array as="points">
              <mxPoint x="180" y="295" />
              <mxPoint x="180" y="260" />
            </Array>
          </mxGeometry>
        </mxCell>
        <mxCell id="kxaNq1Bsel2BopFmglXN-53" value="value: double" style="text;html=1;strokeColor=none;fillColor=none;align=center;verticalAlign=middle;whiteSpace=wrap;rounded=0;labelBackgroundColor=none;fontColor=#393C56;" parent="1" vertex="1">
          <mxGeometry x="250" y="190" width="140" height="30" as="geometry" />
        </mxCell>
        <mxCell id="dcrfOVd3hIp5pLA7-Zam-5" value="" style="endArrow=classic;html=1;rounded=0;entryX=0.026;entryY=1.092;entryDx=0;entryDy=0;entryPerimeter=0;exitX=0.034;exitY=-0.009;exitDx=0;exitDy=0;exitPerimeter=0;" edge="1" parent="1" source="kxaNq1Bsel2BopFmglXN-12" target="kxaNq1Bsel2BopFmglXN-18">
          <mxGeometry relative="1" as="geometry">
            <mxPoint x="240" y="170" as="sourcePoint" />
            <mxPoint x="400" y="170" as="targetPoint" />
          </mxGeometry>
        </mxCell>
        <mxCell id="dcrfOVd3hIp5pLA7-Zam-7" value="skattetrekkPerMaaned()" style="edgeLabel;html=1;align=center;verticalAlign=middle;resizable=0;points=[];" vertex="1" connectable="0" parent="dcrfOVd3hIp5pLA7-Zam-5">
          <mxGeometry x="-0.0251" y="1" relative="1" as="geometry">
            <mxPoint as="offset" />
          </mxGeometry>
        </mxCell>
        <mxCell id="dcrfOVd3hIp5pLA7-Zam-8" value="Skattetrekk per&lt;br&gt;måned" style="text;html=1;align=center;verticalAlign=middle;resizable=0;points=[];autosize=1;strokeColor=none;fillColor=none;fontSize=12;" vertex="1" parent="1">
          <mxGeometry x="50" y="200" width="100" height="40" as="geometry" />
        </mxCell>
        <mxCell id="dcrfOVd3hIp5pLA7-Zam-9" value="Bruttolønn per&lt;br&gt;år" style="text;html=1;align=center;verticalAlign=middle;resizable=0;points=[];autosize=1;strokeColor=none;fillColor=none;fontSize=12;" vertex="1" parent="1">
          <mxGeometry x="45" y="285" width="100" height="40" as="geometry" />
        </mxCell>
        <mxCell id="dcrfOVd3hIp5pLA7-Zam-21" value="" style="edgeStyle=orthogonalEdgeStyle;rounded=0;orthogonalLoop=1;jettySize=auto;html=1;labelBackgroundColor=none;strokeColor=#E07A5F;fontColor=default;" edge="1" parent="1">
          <mxGeometry relative="1" as="geometry">
            <mxPoint x="150" y="310" as="sourcePoint" />
            <mxPoint x="205" y="260" as="targetPoint" />
            <Array as="points">
              <mxPoint x="180" y="310" />
              <mxPoint x="180" y="260" />
            </Array>
          </mxGeometry>
        </mxCell>
        <mxCell id="dcrfOVd3hIp5pLA7-Zam-25" value="Skattetrekk per&amp;nbsp;&lt;br&gt;år" style="text;html=1;align=center;verticalAlign=middle;resizable=0;points=[];autosize=1;strokeColor=none;fillColor=none;fontSize=12;" vertex="1" parent="1">
          <mxGeometry x="50" y="370.94" width="110" height="40" as="geometry" />
        </mxCell>
        <mxCell id="dcrfOVd3hIp5pLA7-Zam-26" value="" style="edgeStyle=orthogonalEdgeStyle;rounded=0;orthogonalLoop=1;jettySize=auto;html=1;labelBackgroundColor=none;strokeColor=#E07A5F;fontColor=default;" edge="1" parent="1">
          <mxGeometry relative="1" as="geometry">
            <mxPoint x="149.38" y="400" as="sourcePoint" />
            <mxPoint x="204.38" y="350" as="targetPoint" />
            <Array as="points">
              <mxPoint x="179.38" y="400" />
              <mxPoint x="179.38" y="350" />
            </Array>
          </mxGeometry>
        </mxCell>
        <mxCell id="dcrfOVd3hIp5pLA7-Zam-27" value="" style="endArrow=classic;html=1;rounded=0;exitX=0.082;exitY=1.005;exitDx=0;exitDy=0;exitPerimeter=0;" edge="1" parent="1">
          <mxGeometry width="50" height="50" relative="1" as="geometry">
            <mxPoint x="404.935" y="219.42750000000015" as="sourcePoint" />
            <mxPoint x="180" y="220" as="targetPoint" />
          </mxGeometry>
        </mxCell>
        <mxCell id="dcrfOVd3hIp5pLA7-Zam-28" value="" style="endArrow=classic;html=1;rounded=0;entryX=0.026;entryY=1.092;entryDx=0;entryDy=0;entryPerimeter=0;exitX=0.034;exitY=-0.009;exitDx=0;exitDy=0;exitPerimeter=0;" edge="1" parent="1">
          <mxGeometry relative="1" as="geometry">
            <mxPoint x="236.5" y="260" as="sourcePoint" />
            <mxPoint x="403.5" y="261" as="targetPoint" />
          </mxGeometry>
        </mxCell>
        <mxCell id="dcrfOVd3hIp5pLA7-Zam-29" value="bruttoLonnPerAar()" style="edgeLabel;html=1;align=center;verticalAlign=middle;resizable=0;points=[];" vertex="1" connectable="0" parent="dcrfOVd3hIp5pLA7-Zam-28">
          <mxGeometry x="-0.0251" y="1" relative="1" as="geometry">
            <mxPoint as="offset" />
          </mxGeometry>
        </mxCell>
        <mxCell id="dcrfOVd3hIp5pLA7-Zam-30" value="" style="endArrow=classic;html=1;rounded=0;exitX=0.082;exitY=1.005;exitDx=0;exitDy=0;exitPerimeter=0;" edge="1" parent="1">
          <mxGeometry width="50" height="50" relative="1" as="geometry">
            <mxPoint x="404.935" y="309.9975000000002" as="sourcePoint" />
            <mxPoint x="180" y="310.29" as="targetPoint" />
          </mxGeometry>
        </mxCell>
        <mxCell id="dcrfOVd3hIp5pLA7-Zam-31" value="value: double" style="text;html=1;strokeColor=none;fillColor=none;align=center;verticalAlign=middle;whiteSpace=wrap;rounded=0;labelBackgroundColor=none;fontColor=#393C56;" vertex="1" parent="1">
          <mxGeometry x="250" y="280" width="140" height="30" as="geometry" />
        </mxCell>
        <mxCell id="dcrfOVd3hIp5pLA7-Zam-32" value="" style="endArrow=classic;html=1;rounded=0;entryX=0.026;entryY=1.092;entryDx=0;entryDy=0;entryPerimeter=0;exitX=0.034;exitY=-0.009;exitDx=0;exitDy=0;exitPerimeter=0;" edge="1" parent="1">
          <mxGeometry relative="1" as="geometry">
            <mxPoint x="236.5" y="350" as="sourcePoint" />
            <mxPoint x="403.5" y="351" as="targetPoint" />
          </mxGeometry>
        </mxCell>
        <mxCell id="dcrfOVd3hIp5pLA7-Zam-33" value="skattetrekkPerAar()" style="edgeLabel;html=1;align=center;verticalAlign=middle;resizable=0;points=[];" vertex="1" connectable="0" parent="dcrfOVd3hIp5pLA7-Zam-32">
          <mxGeometry x="-0.0251" y="1" relative="1" as="geometry">
            <mxPoint as="offset" />
          </mxGeometry>
        </mxCell>
        <mxCell id="dcrfOVd3hIp5pLA7-Zam-34" value="" style="endArrow=classic;html=1;rounded=0;exitX=0.082;exitY=1.005;exitDx=0;exitDy=0;exitPerimeter=0;" edge="1" parent="1">
          <mxGeometry width="50" height="50" relative="1" as="geometry">
            <mxPoint x="404.935" y="399.9975000000002" as="sourcePoint" />
            <mxPoint x="180" y="400.29" as="targetPoint" />
          </mxGeometry>
        </mxCell>
        <mxCell id="dcrfOVd3hIp5pLA7-Zam-35" value="value: double" style="text;html=1;strokeColor=none;fillColor=none;align=center;verticalAlign=middle;whiteSpace=wrap;rounded=0;labelBackgroundColor=none;fontColor=#393C56;" vertex="1" parent="1">
          <mxGeometry x="250" y="370.94" width="140" height="30" as="geometry" />
        </mxCell>
        <mxCell id="dcrfOVd3hIp5pLA7-Zam-36" value="Formellt navn" style="text;html=1;align=center;verticalAlign=middle;resizable=0;points=[];autosize=1;strokeColor=none;fillColor=none;fontSize=12;" vertex="1" parent="1">
          <mxGeometry x="49.38" y="470" width="100" height="30" as="geometry" />
        </mxCell>
        <mxCell id="dcrfOVd3hIp5pLA7-Zam-37" value="" style="edgeStyle=orthogonalEdgeStyle;rounded=0;orthogonalLoop=1;jettySize=auto;html=1;labelBackgroundColor=none;strokeColor=#E07A5F;fontColor=default;" edge="1" parent="1">
          <mxGeometry relative="1" as="geometry">
            <mxPoint x="149.38" y="486.56" as="sourcePoint" />
            <mxPoint x="204.38" y="436.56" as="targetPoint" />
            <Array as="points">
              <mxPoint x="179.38" y="486.56" />
              <mxPoint x="179.38" y="436.56" />
            </Array>
          </mxGeometry>
        </mxCell>
        <mxCell id="dcrfOVd3hIp5pLA7-Zam-38" value="" style="endArrow=classic;html=1;rounded=0;entryX=0.026;entryY=1.092;entryDx=0;entryDy=0;entryPerimeter=0;exitX=0.034;exitY=-0.009;exitDx=0;exitDy=0;exitPerimeter=0;" edge="1" parent="1">
          <mxGeometry relative="1" as="geometry">
            <mxPoint x="236.5" y="436.56" as="sourcePoint" />
            <mxPoint x="403.5" y="437.56" as="targetPoint" />
          </mxGeometry>
        </mxCell>
        <mxCell id="dcrfOVd3hIp5pLA7-Zam-39" value="getPersonalia()" style="edgeLabel;html=1;align=center;verticalAlign=middle;resizable=0;points=[];" vertex="1" connectable="0" parent="dcrfOVd3hIp5pLA7-Zam-38">
          <mxGeometry x="-0.0251" y="1" relative="1" as="geometry">
            <mxPoint as="offset" />
          </mxGeometry>
        </mxCell>
        <mxCell id="dcrfOVd3hIp5pLA7-Zam-40" value="value: String" style="edgeLabel;html=1;align=center;verticalAlign=middle;resizable=0;points=[];" vertex="1" connectable="0" parent="dcrfOVd3hIp5pLA7-Zam-38">
          <mxGeometry x="-0.0542" y="2" relative="1" as="geometry">
            <mxPoint y="35" as="offset" />
          </mxGeometry>
        </mxCell>
        <mxCell id="dcrfOVd3hIp5pLA7-Zam-41" value="" style="edgeStyle=orthogonalEdgeStyle;rounded=0;orthogonalLoop=1;jettySize=auto;html=1;labelBackgroundColor=none;strokeColor=#E07A5F;fontColor=default;" edge="1" parent="1">
          <mxGeometry relative="1" as="geometry">
            <mxPoint x="397" y="437.49999999999994" as="sourcePoint" />
            <mxPoint x="452" y="410.94" as="targetPoint" />
            <Array as="points">
              <mxPoint x="427" y="437.94" />
              <mxPoint x="427" y="410.94" />
              <mxPoint x="452" y="410.94" />
            </Array>
          </mxGeometry>
        </mxCell>
        <mxCell id="dcrfOVd3hIp5pLA7-Zam-42" value="" style="endArrow=classic;html=1;rounded=0;entryX=0.026;entryY=1.092;entryDx=0;entryDy=0;entryPerimeter=0;exitX=0.034;exitY=-0.009;exitDx=0;exitDy=0;exitPerimeter=0;" edge="1" parent="1">
          <mxGeometry relative="1" as="geometry">
            <mxPoint x="440" y="409.94" as="sourcePoint" />
            <mxPoint x="607" y="410.94" as="targetPoint" />
          </mxGeometry>
        </mxCell>
        <mxCell id="dcrfOVd3hIp5pLA7-Zam-43" value="getFornavn()" style="edgeLabel;html=1;align=center;verticalAlign=middle;resizable=0;points=[];" vertex="1" connectable="0" parent="dcrfOVd3hIp5pLA7-Zam-42">
          <mxGeometry x="-0.0251" y="1" relative="1" as="geometry">
            <mxPoint as="offset" />
          </mxGeometry>
        </mxCell>
        <mxCell id="dcrfOVd3hIp5pLA7-Zam-45" value="" style="endArrow=classic;html=1;rounded=0;entryX=0.026;entryY=1.092;entryDx=0;entryDy=0;entryPerimeter=0;exitX=0.034;exitY=-0.009;exitDx=0;exitDy=0;exitPerimeter=0;" edge="1" parent="1">
          <mxGeometry relative="1" as="geometry">
            <mxPoint x="442" y="465.56" as="sourcePoint" />
            <mxPoint x="609" y="466.56" as="targetPoint" />
          </mxGeometry>
        </mxCell>
        <mxCell id="dcrfOVd3hIp5pLA7-Zam-46" value="getEtternavn()" style="edgeLabel;html=1;align=center;verticalAlign=middle;resizable=0;points=[];" vertex="1" connectable="0" parent="dcrfOVd3hIp5pLA7-Zam-45">
          <mxGeometry x="-0.0251" y="1" relative="1" as="geometry">
            <mxPoint as="offset" />
          </mxGeometry>
        </mxCell>
        <mxCell id="dcrfOVd3hIp5pLA7-Zam-47" value="" style="edgeStyle=orthogonalEdgeStyle;rounded=0;orthogonalLoop=1;jettySize=auto;html=1;labelBackgroundColor=none;strokeColor=#E07A5F;fontColor=default;" edge="1" parent="1">
          <mxGeometry relative="1" as="geometry">
            <mxPoint x="397" y="438.27526315789487" as="sourcePoint" />
            <mxPoint x="452" y="464.8352631578948" as="targetPoint" />
            <Array as="points">
              <mxPoint x="427" y="437.8352631578948" />
              <mxPoint x="427" y="464.8352631578948" />
              <mxPoint x="452" y="464.8352631578948" />
            </Array>
          </mxGeometry>
        </mxCell>
        <mxCell id="dcrfOVd3hIp5pLA7-Zam-48" value="" style="endArrow=classic;html=1;rounded=0;" edge="1" parent="1">
          <mxGeometry width="50" height="50" relative="1" as="geometry">
            <mxPoint x="404" y="487" as="sourcePoint" />
            <mxPoint x="180" y="484.94000000000005" as="targetPoint" />
          </mxGeometry>
        </mxCell>
        <mxCell id="dcrfOVd3hIp5pLA7-Zam-49" value="" style="endArrow=classic;html=1;rounded=0;" edge="1" parent="1">
          <mxGeometry width="50" height="50" relative="1" as="geometry">
            <mxPoint x="605" y="438" as="sourcePoint" />
            <mxPoint x="430" y="436.56000000000006" as="targetPoint" />
          </mxGeometry>
        </mxCell>
        <mxCell id="dcrfOVd3hIp5pLA7-Zam-50" value="" style="endArrow=classic;html=1;rounded=0;" edge="1" parent="1">
          <mxGeometry width="50" height="50" relative="1" as="geometry">
            <mxPoint x="605" y="442" as="sourcePoint" />
            <mxPoint x="429.72" y="440.63000000000005" as="targetPoint" />
          </mxGeometry>
        </mxCell>
        <mxCell id="dcrfOVd3hIp5pLA7-Zam-51" value="verdi: String" style="text;html=1;strokeColor=none;fillColor=none;align=center;verticalAlign=middle;whiteSpace=wrap;rounded=0;fontSize=9;" vertex="1" parent="1">
          <mxGeometry x="470" y="410.94" width="98.44" height="30" as="geometry" />
        </mxCell>
        <mxCell id="dcrfOVd3hIp5pLA7-Zam-52" value="verdi: String" style="text;html=1;strokeColor=none;fillColor=none;align=center;verticalAlign=middle;whiteSpace=wrap;rounded=0;fontSize=9;" vertex="1" parent="1">
          <mxGeometry x="470" y="436.56" width="98.44" height="30" as="geometry" />
        </mxCell>
        <mxCell id="dcrfOVd3hIp5pLA7-Zam-53" value="Alder" style="text;html=1;align=center;verticalAlign=middle;resizable=0;points=[];autosize=1;strokeColor=none;fillColor=none;fontSize=12;" vertex="1" parent="1">
          <mxGeometry x="80" y="550" width="50" height="30" as="geometry" />
        </mxCell>
        <mxCell id="dcrfOVd3hIp5pLA7-Zam-54" value="" style="edgeStyle=orthogonalEdgeStyle;rounded=0;orthogonalLoop=1;jettySize=auto;html=1;labelBackgroundColor=none;strokeColor=#E07A5F;fontColor=default;" edge="1" parent="1">
          <mxGeometry relative="1" as="geometry">
            <mxPoint x="149.38" y="570" as="sourcePoint" />
            <mxPoint x="204.38" y="520" as="targetPoint" />
            <Array as="points">
              <mxPoint x="179.38" y="570" />
              <mxPoint x="179.38" y="520" />
            </Array>
          </mxGeometry>
        </mxCell>
        <mxCell id="dcrfOVd3hIp5pLA7-Zam-55" value="" style="endArrow=classic;html=1;rounded=0;entryX=0.026;entryY=1.092;entryDx=0;entryDy=0;entryPerimeter=0;exitX=0.034;exitY=-0.009;exitDx=0;exitDy=0;exitPerimeter=0;" edge="1" parent="1">
          <mxGeometry relative="1" as="geometry">
            <mxPoint x="236.5" y="520" as="sourcePoint" />
            <mxPoint x="403.5" y="521" as="targetPoint" />
          </mxGeometry>
        </mxCell>
        <mxCell id="dcrfOVd3hIp5pLA7-Zam-56" value="getPersonalia()" style="edgeLabel;html=1;align=center;verticalAlign=middle;resizable=0;points=[];" vertex="1" connectable="0" parent="dcrfOVd3hIp5pLA7-Zam-55">
          <mxGeometry x="-0.0251" y="1" relative="1" as="geometry">
            <mxPoint as="offset" />
          </mxGeometry>
        </mxCell>
        <mxCell id="dcrfOVd3hIp5pLA7-Zam-57" value="value: int" style="edgeLabel;html=1;align=center;verticalAlign=middle;resizable=0;points=[];" vertex="1" connectable="0" parent="dcrfOVd3hIp5pLA7-Zam-55">
          <mxGeometry x="-0.0542" y="2" relative="1" as="geometry">
            <mxPoint x="1" y="39" as="offset" />
          </mxGeometry>
        </mxCell>
        <mxCell id="dcrfOVd3hIp5pLA7-Zam-61" value="" style="edgeStyle=orthogonalEdgeStyle;rounded=0;orthogonalLoop=1;jettySize=auto;html=1;labelBackgroundColor=none;strokeColor=#E07A5F;fontColor=default;" edge="1" parent="1">
          <mxGeometry relative="1" as="geometry">
            <mxPoint x="400" y="520.56" as="sourcePoint" />
            <mxPoint x="455" y="494" as="targetPoint" />
            <Array as="points">
              <mxPoint x="430" y="521" />
              <mxPoint x="430" y="494" />
              <mxPoint x="455" y="494" />
            </Array>
          </mxGeometry>
        </mxCell>
        <mxCell id="dcrfOVd3hIp5pLA7-Zam-62" value="" style="endArrow=classic;html=1;rounded=0;entryX=0.026;entryY=1.092;entryDx=0;entryDy=0;entryPerimeter=0;exitX=0.034;exitY=-0.009;exitDx=0;exitDy=0;exitPerimeter=0;" edge="1" parent="1">
          <mxGeometry relative="1" as="geometry">
            <mxPoint x="441" y="494" as="sourcePoint" />
            <mxPoint x="608" y="495" as="targetPoint" />
          </mxGeometry>
        </mxCell>
        <mxCell id="dcrfOVd3hIp5pLA7-Zam-63" value="getFodselsaar()" style="edgeLabel;html=1;align=center;verticalAlign=middle;resizable=0;points=[];" vertex="1" connectable="0" parent="dcrfOVd3hIp5pLA7-Zam-62">
          <mxGeometry x="-0.0251" y="1" relative="1" as="geometry">
            <mxPoint as="offset" />
          </mxGeometry>
        </mxCell>
        <mxCell id="dcrfOVd3hIp5pLA7-Zam-65" value="" style="endArrow=classic;html=1;rounded=0;" edge="1" parent="1">
          <mxGeometry width="50" height="50" relative="1" as="geometry">
            <mxPoint x="606.72" y="519.44" as="sourcePoint" />
            <mxPoint x="431.72" y="518" as="targetPoint" />
          </mxGeometry>
        </mxCell>
        <mxCell id="dcrfOVd3hIp5pLA7-Zam-66" value="verdi: int" style="text;html=1;strokeColor=none;fillColor=none;align=center;verticalAlign=middle;whiteSpace=wrap;rounded=0;fontSize=9;" vertex="1" parent="1">
          <mxGeometry x="476" y="495" width="98.44" height="30" as="geometry" />
        </mxCell>
        <mxCell id="dcrfOVd3hIp5pLA7-Zam-67" value="" style="endArrow=classic;html=1;rounded=0;exitX=0.611;exitY=1.04;exitDx=0;exitDy=0;exitPerimeter=0;" edge="1" parent="1">
          <mxGeometry width="50" height="50" relative="1" as="geometry">
            <mxPoint x="404" y="570.06" as="sourcePoint" />
            <mxPoint x="180" y="569" as="targetPoint" />
          </mxGeometry>
        </mxCell>
        <mxCell id="dcrfOVd3hIp5pLA7-Zam-68" value="Antall år ansatt&lt;br&gt;i bedriften" style="text;html=1;align=center;verticalAlign=middle;resizable=0;points=[];autosize=1;strokeColor=none;fillColor=none;fontSize=12;" vertex="1" parent="1">
          <mxGeometry x="47" y="649" width="98" height="41" as="geometry" />
        </mxCell>
        <mxCell id="dcrfOVd3hIp5pLA7-Zam-69" value="" style="edgeStyle=orthogonalEdgeStyle;rounded=0;orthogonalLoop=1;jettySize=auto;html=1;labelBackgroundColor=none;strokeColor=#E07A5F;fontColor=default;" edge="1" parent="1">
          <mxGeometry relative="1" as="geometry">
            <mxPoint x="149.38" y="668" as="sourcePoint" />
            <mxPoint x="204.38" y="618" as="targetPoint" />
            <Array as="points">
              <mxPoint x="179.38" y="668" />
              <mxPoint x="179.38" y="618" />
            </Array>
          </mxGeometry>
        </mxCell>
        <mxCell id="dcrfOVd3hIp5pLA7-Zam-70" value="" style="endArrow=classic;html=1;rounded=0;entryX=0.026;entryY=1.092;entryDx=0;entryDy=0;entryPerimeter=0;exitX=0.034;exitY=-0.009;exitDx=0;exitDy=0;exitPerimeter=0;" edge="1" parent="1">
          <mxGeometry relative="1" as="geometry">
            <mxPoint x="236.5" y="619" as="sourcePoint" />
            <mxPoint x="403.5" y="620" as="targetPoint" />
          </mxGeometry>
        </mxCell>
        <mxCell id="dcrfOVd3hIp5pLA7-Zam-71" value="antallAarAnsatt()" style="edgeLabel;html=1;align=center;verticalAlign=middle;resizable=0;points=[];" vertex="1" connectable="0" parent="dcrfOVd3hIp5pLA7-Zam-70">
          <mxGeometry x="-0.0251" y="1" relative="1" as="geometry">
            <mxPoint as="offset" />
          </mxGeometry>
        </mxCell>
        <mxCell id="dcrfOVd3hIp5pLA7-Zam-72" value="value: int" style="edgeLabel;html=1;align=center;verticalAlign=middle;resizable=0;points=[];" vertex="1" connectable="0" parent="dcrfOVd3hIp5pLA7-Zam-70">
          <mxGeometry x="-0.0542" y="2" relative="1" as="geometry">
            <mxPoint x="1" y="27" as="offset" />
          </mxGeometry>
        </mxCell>
        <mxCell id="dcrfOVd3hIp5pLA7-Zam-73" value="" style="endArrow=classic;html=1;rounded=0;exitX=0.611;exitY=1.04;exitDx=0;exitDy=0;exitPerimeter=0;" edge="1" parent="1">
          <mxGeometry width="50" height="50" relative="1" as="geometry">
            <mxPoint x="405" y="667.06" as="sourcePoint" />
            <mxPoint x="181" y="666" as="targetPoint" />
          </mxGeometry>
        </mxCell>
        <mxCell id="dcrfOVd3hIp5pLA7-Zam-74" value="Ansatt mer enn &lt;br&gt;x antall år" style="text;html=1;align=center;verticalAlign=middle;resizable=0;points=[];autosize=1;strokeColor=none;fillColor=none;fontSize=12;" vertex="1" parent="1">
          <mxGeometry x="50" y="719" width="99" height="41" as="geometry" />
        </mxCell>
        <mxCell id="dcrfOVd3hIp5pLA7-Zam-75" value="" style="edgeStyle=orthogonalEdgeStyle;rounded=0;orthogonalLoop=1;jettySize=auto;html=1;labelBackgroundColor=none;strokeColor=#E07A5F;fontColor=default;" edge="1" parent="1">
          <mxGeometry relative="1" as="geometry">
            <mxPoint x="145" y="767" as="sourcePoint" />
            <mxPoint x="200" y="717" as="targetPoint" />
            <Array as="points">
              <mxPoint x="175" y="767" />
              <mxPoint x="175" y="717" />
            </Array>
          </mxGeometry>
        </mxCell>
        <mxCell id="dcrfOVd3hIp5pLA7-Zam-76" value="" style="endArrow=classic;html=1;rounded=0;entryX=0.026;entryY=1.092;entryDx=0;entryDy=0;entryPerimeter=0;exitX=0.034;exitY=-0.009;exitDx=0;exitDy=0;exitPerimeter=0;" edge="1" parent="1">
          <mxGeometry relative="1" as="geometry">
            <mxPoint x="236.5" y="718" as="sourcePoint" />
            <mxPoint x="403.5" y="719" as="targetPoint" />
          </mxGeometry>
        </mxCell>
        <mxCell id="dcrfOVd3hIp5pLA7-Zam-77" value="ansattMerEnn(value: int)" style="edgeLabel;html=1;align=center;verticalAlign=middle;resizable=0;points=[];" vertex="1" connectable="0" parent="dcrfOVd3hIp5pLA7-Zam-76">
          <mxGeometry x="-0.0251" y="1" relative="1" as="geometry">
            <mxPoint as="offset" />
          </mxGeometry>
        </mxCell>
        <mxCell id="dcrfOVd3hIp5pLA7-Zam-79" value="" style="endArrow=classic;html=1;rounded=0;exitX=0.611;exitY=1.04;exitDx=0;exitDy=0;exitPerimeter=0;" edge="1" parent="1">
          <mxGeometry width="50" height="50" relative="1" as="geometry">
            <mxPoint x="402" y="766.06" as="sourcePoint" />
            <mxPoint x="178" y="765" as="targetPoint" />
          </mxGeometry>
        </mxCell>
        <mxCell id="dcrfOVd3hIp5pLA7-Zam-80" value="value: boolean" style="edgeLabel;html=1;align=center;verticalAlign=middle;resizable=0;points=[];" vertex="1" connectable="0" parent="1">
          <mxGeometry x="319.99965208115424" y="749.0025369108437" as="geometry">
            <mxPoint x="-5" y="1" as="offset" />
          </mxGeometry>
        </mxCell>
      </root>
    </mxGraphModel>
  </diagram>
  <diagram id="-Uw6YNi_s_rpHRHDK_x_" name="Page-2">
    <mxGraphModel dx="1482" dy="822" grid="1" gridSize="10" guides="1" tooltips="1" connect="1" arrows="1" fold="1" page="1" pageScale="1" pageWidth="850" pageHeight="1100" math="0" shadow="0">
      <root>
        <mxCell id="0" />
        <mxCell id="1" parent="0" />
      </root>
    </mxGraphModel>
  </diagram>
</mxfile>
